<mxfile host="Electron" agent="Mozilla/5.0 (Windows NT 10.0; Win64; x64) AppleWebKit/537.36 (KHTML, like Gecko) draw.io/26.0.9 Chrome/128.0.6613.186 Electron/32.2.5 Safari/537.36" version="26.0.9">
  <diagram name="Страница — 1" id="v9bALeaSFdaCprS97yKo">
    <mxGraphModel dx="780" dy="496" grid="1" gridSize="10" guides="1" tooltips="1" connect="1" arrows="1" fold="1" page="1" pageScale="1" pageWidth="827" pageHeight="1169" math="0" shadow="0">
      <root>
        <mxCell id="0" />
        <mxCell id="1" parent="0" />
        <mxCell id="ZfXkkXzuYcZu8Mihrkrz-1" value="Человек" style="html=1;dashed=0;whiteSpace=wrap;" vertex="1" parent="1">
          <mxGeometry y="110" width="280" height="270" as="geometry" />
        </mxCell>
        <mxCell id="ZfXkkXzuYcZu8Mihrkrz-2" value="Программа" style="shape=ellipse;html=1;dashed=0;whiteSpace=wrap;aspect=fixed;perimeter=ellipsePerimeter;" vertex="1" parent="1">
          <mxGeometry x="510" y="100" width="310" height="310" as="geometry" />
        </mxCell>
        <mxCell id="ZfXkkXzuYcZu8Mihrkrz-3" value="" style="endArrow=classic;html=1;rounded=0;exitX=0.986;exitY=0.132;exitDx=0;exitDy=0;exitPerimeter=0;entryX=0;entryY=0;entryDx=0;entryDy=0;" edge="1" parent="1" source="ZfXkkXzuYcZu8Mihrkrz-1" target="ZfXkkXzuYcZu8Mihrkrz-2">
          <mxGeometry width="50" height="50" relative="1" as="geometry">
            <mxPoint x="380" y="280" as="sourcePoint" />
            <mxPoint x="470" y="258" as="targetPoint" />
          </mxGeometry>
        </mxCell>
        <mxCell id="ZfXkkXzuYcZu8Mihrkrz-4" value="" style="endArrow=classic;html=1;rounded=0;entryX=0.998;entryY=0.283;entryDx=0;entryDy=0;entryPerimeter=0;exitX=0.065;exitY=0.278;exitDx=0;exitDy=0;exitPerimeter=0;" edge="1" parent="1" source="ZfXkkXzuYcZu8Mihrkrz-2" target="ZfXkkXzuYcZu8Mihrkrz-1">
          <mxGeometry width="50" height="50" relative="1" as="geometry">
            <mxPoint x="507" y="310" as="sourcePoint" />
            <mxPoint x="281" y="260" as="targetPoint" />
          </mxGeometry>
        </mxCell>
        <mxCell id="ZfXkkXzuYcZu8Mihrkrz-5" value="Запрос на проведение импорта данных" style="text;html=1;align=center;verticalAlign=middle;resizable=0;points=[];autosize=1;strokeColor=none;fillColor=none;" vertex="1" parent="1">
          <mxGeometry x="285" y="110" width="240" height="30" as="geometry" />
        </mxCell>
        <mxCell id="ZfXkkXzuYcZu8Mihrkrz-8" value="Сообщение о результатах импорта" style="text;html=1;align=center;verticalAlign=middle;resizable=0;points=[];autosize=1;strokeColor=none;fillColor=none;" vertex="1" parent="1">
          <mxGeometry x="299" y="160" width="220" height="30" as="geometry" />
        </mxCell>
        <mxCell id="ZfXkkXzuYcZu8Mihrkrz-9" value="" style="endArrow=classic;html=1;rounded=0;entryX=1;entryY=0.574;entryDx=0;entryDy=0;exitX=-0.011;exitY=0.532;exitDx=0;exitDy=0;exitPerimeter=0;entryPerimeter=0;" edge="1" parent="1" source="ZfXkkXzuYcZu8Mihrkrz-2" target="ZfXkkXzuYcZu8Mihrkrz-1">
          <mxGeometry width="50" height="50" relative="1" as="geometry">
            <mxPoint x="380" y="280" as="sourcePoint" />
            <mxPoint x="430" y="230" as="targetPoint" />
          </mxGeometry>
        </mxCell>
        <mxCell id="ZfXkkXzuYcZu8Mihrkrz-10" value="Сообщение о проведении расчётов" style="text;html=1;align=center;verticalAlign=middle;resizable=0;points=[];autosize=1;strokeColor=none;fillColor=none;" vertex="1" parent="1">
          <mxGeometry x="289" y="230" width="220" height="30" as="geometry" />
        </mxCell>
        <mxCell id="ZfXkkXzuYcZu8Mihrkrz-11" value="" style="endArrow=classic;html=1;rounded=0;exitX=0.998;exitY=0.407;exitDx=0;exitDy=0;exitPerimeter=0;" edge="1" parent="1" source="ZfXkkXzuYcZu8Mihrkrz-1">
          <mxGeometry width="50" height="50" relative="1" as="geometry">
            <mxPoint x="380" y="280" as="sourcePoint" />
            <mxPoint x="509" y="220" as="targetPoint" />
          </mxGeometry>
        </mxCell>
        <mxCell id="ZfXkkXzuYcZu8Mihrkrz-12" value="Запрос на проведение расчётов" style="text;html=1;align=center;verticalAlign=middle;resizable=0;points=[];autosize=1;strokeColor=none;fillColor=none;" vertex="1" parent="1">
          <mxGeometry x="299" y="190" width="200" height="30" as="geometry" />
        </mxCell>
        <mxCell id="ZfXkkXzuYcZu8Mihrkrz-13" value="" style="endArrow=classic;html=1;rounded=0;entryX=0.032;entryY=0.71;entryDx=0;entryDy=0;entryPerimeter=0;" edge="1" parent="1" target="ZfXkkXzuYcZu8Mihrkrz-2">
          <mxGeometry width="50" height="50" relative="1" as="geometry">
            <mxPoint x="284" y="320" as="sourcePoint" />
            <mxPoint x="490" y="380" as="targetPoint" />
          </mxGeometry>
        </mxCell>
        <mxCell id="ZfXkkXzuYcZu8Mihrkrz-15" value="Запрос на экспорт результатов" style="text;html=1;align=center;verticalAlign=middle;resizable=0;points=[];autosize=1;strokeColor=none;fillColor=none;" vertex="1" parent="1">
          <mxGeometry x="299" y="290" width="200" height="30" as="geometry" />
        </mxCell>
        <mxCell id="ZfXkkXzuYcZu8Mihrkrz-16" value="" style="endArrow=classic;html=1;rounded=0;entryX=1.005;entryY=0.949;entryDx=0;entryDy=0;entryPerimeter=0;exitX=0;exitY=1;exitDx=0;exitDy=0;" edge="1" parent="1" source="ZfXkkXzuYcZu8Mihrkrz-2" target="ZfXkkXzuYcZu8Mihrkrz-1">
          <mxGeometry width="50" height="50" relative="1" as="geometry">
            <mxPoint x="380" y="280" as="sourcePoint" />
            <mxPoint x="430" y="230" as="targetPoint" />
          </mxGeometry>
        </mxCell>
        <mxCell id="ZfXkkXzuYcZu8Mihrkrz-17" value="Экспорт результатов" style="text;html=1;align=center;verticalAlign=middle;resizable=0;points=[];autosize=1;strokeColor=none;fillColor=none;" vertex="1" parent="1">
          <mxGeometry x="335" y="330" width="140" height="30" as="geometry" />
        </mxCell>
      </root>
    </mxGraphModel>
  </diagram>
</mxfile>
